<svg width="30" height="29" viewBox="0 0 30 29" fill="none" xmlns="http://www.w3.org/2000/svg">
<path d="M24.4617 27.3648H6.1281C3.59464 27.3648 1.5249 25.4168 1.5249 23.0324V5.77724C1.5249 3.39282 3.59464 1.44482 6.1281 1.44482H24.4617C26.9952 1.44482 29.0649 3.39282 29.0649 5.77724V23.0324C29.0649 25.4275 27.0065 27.3648 24.4617 27.3648Z" stroke="#000000" stroke-width="1.62"/>
<path d="M10.3014 19.1153C11.636 20.3714 13.4117 21.0633 15.3005 21.0633C17.1893 21.0633 18.9536 20.3714 20.2995 19.1153C21.6341 17.8592 22.3693 16.188 22.3693 14.4103C22.3693 12.6326 21.6341 10.9614 20.2995 9.70532C18.9649 8.44923 17.1893 7.75732 15.3005 7.75732C13.4117 7.75732 11.636 8.44923 10.3014 9.70532C8.96684 10.9614 8.23169 12.6326 8.23169 14.4103C8.23169 16.188 8.96684 17.8592 10.3014 19.1153Z" stroke="#000000" stroke-width="1.62"/>
<path d="M23.7471 7.53821C24.4967 7.53821 25.1044 6.96629 25.1044 6.2608C25.1044 5.55531 24.4967 4.9834 23.7471 4.9834C22.9976 4.9834 22.3899 5.55531 22.3899 6.2608C22.3899 6.96629 22.9976 7.53821 23.7471 7.53821Z" stroke="#000000" stroke-width="1.62"/>
</svg>
