<?xml version="1.0" encoding="UTF-8"?>
<svg id="_レイヤー_1" data-name="レイヤー_1" xmlns="http://www.w3.org/2000/svg" version="1.1" viewBox="0 0 30 30">
  <!-- Generator: Adobe Illustrator 29.6.0, SVG Export Plug-In . SVG Version: 2.1.1 Build 207)  -->
  <defs>
    <style>
      .st0 {
        fill-rule: evenodd;
      }
    </style>
  </defs>
  <path class="st0" d="M21.5,28.7c-2,0-7.6-.8-13.5-6.7C2.1,16.1,1.3,10.5,1.3,8.5c-.1-3,2.2-6,4.9-7.1.3-.1.7-.2,1-.2.3,0,.7.2,1,.4,2.2,1.6,3.7,4,5,5.9.3.4.4.9.3,1.4,0,.5-.3,1-.7,1.3l-2.7,2c-.1,0-.2.2-.3.4,0,.2,0,.3,0,.5.6,1.1,1.7,2.8,2.9,4,1.2,1.2,3,2.4,4.1,3.1.1,0,.3.1.5,0,.2,0,.3-.1.4-.3l1.7-2.7c.3-.4.8-.7,1.3-.8.5,0,1.1,0,1.5.3,1.9,1.3,4.2,2.8,5.9,5,.2.3.4.6.4,1s0,.7-.1,1.1c-1.2,2.7-4.1,5-7.1,4.9Z"/>
</svg>