<svg width="29" height="29" viewBox="0 0 29 29" fill="none" xmlns="http://www.w3.org/2000/svg">
<path d="M17.3538 25.3313H3.17881C1.70815 25.3313 0.520996 24.1442 0.520996 22.6735V4.74216C0.520996 3.27151 1.70815 2.08435 3.17881 2.08435H22.6694C24.1401 2.08435 25.3272 3.27151 25.3272 4.74216V17.5883C25.3272 18.0844 24.9374 18.4742 24.4413 18.4742C23.9452 18.4742 23.5554 18.0844 23.5554 17.5883V4.74216C23.5554 4.24604 23.1656 3.85623 22.6694 3.85623H3.17881C2.68268 3.85623 2.29287 4.24604 2.29287 4.74216V22.6735C2.29287 23.1697 2.68268 23.5595 3.17881 23.5595H17.3538C17.8499 23.5595 18.2397 23.9493 18.2397 24.4454C18.2397 24.9415 17.8499 25.3313 17.3538 25.3313Z" fill="white"/>
<path d="M7.6085 6.93921C7.11237 6.93921 6.72256 6.5494 6.72256 6.05327V1.41096C6.72256 0.914837 7.11237 0.525024 7.6085 0.525024C8.10462 0.525024 8.49443 0.914837 8.49443 1.41096V6.05327C8.49443 6.5494 8.10462 6.93921 7.6085 6.93921ZM18.4524 6.93921C17.9562 6.93921 17.5664 6.5494 17.5664 6.05327V1.41096C17.5664 0.914837 17.9562 0.525024 18.4524 0.525024C18.9485 0.525024 19.3383 0.914837 19.3383 1.41096V6.05327C19.3383 6.5494 18.9485 6.93921 18.4524 6.93921ZM24.4413 11.1563H1.40693C0.910809 11.1563 0.520996 10.7665 0.520996 10.2703C0.520996 9.77421 0.910809 9.3844 1.40693 9.3844H24.4413C24.9374 9.3844 25.3272 9.77421 25.3272 10.2703C25.3272 10.7665 24.9374 11.1563 24.4413 11.1563ZM22.6694 28.875C19.2497 28.875 16.4679 26.0932 16.4679 22.6735C16.4679 19.2537 19.2497 16.4719 22.6694 16.4719C26.0892 16.4719 28.871 19.2537 28.871 22.6735C28.871 26.0932 26.0892 28.875 22.6694 28.875ZM22.6694 18.2438C21.4946 18.2438 20.3679 18.7105 19.5372 19.5412C18.7064 20.3719 18.2397 21.4986 18.2397 22.6735C18.2397 23.8483 18.7064 24.975 19.5372 25.8057C20.3679 26.6364 21.4946 27.1031 22.6694 27.1031C23.8443 27.1031 24.971 26.6364 25.8017 25.8057C26.6324 24.975 27.0991 23.8483 27.0991 22.6735C27.0991 21.4986 26.6324 20.3719 25.8017 19.5412C24.971 18.7105 23.8443 18.2438 22.6694 18.2438Z" fill="white"/>
<path d="M24.4415 25.3313C24.3253 25.3327 24.2101 25.3098 24.1033 25.2641C23.9965 25.2183 23.9005 25.1507 23.8213 25.0655L22.0495 23.2937C21.8825 23.1301 21.787 22.9072 21.7837 22.6735V20.0157C21.7837 19.5196 22.1735 19.1298 22.6696 19.1298C23.1658 19.1298 23.5556 19.5196 23.5556 20.0157V22.3014L25.0617 23.8075C25.416 24.1619 25.416 24.7112 25.0617 25.0655C24.8845 25.2427 24.6541 25.3313 24.4415 25.3313Z" fill="white"/>
</svg>
