<svg width="31" height="24" viewBox="0 0 31 24" fill="none" xmlns="http://www.w3.org/2000/svg">
<path d="M28.1833 2.18268C29.951 4.05441 30.9 6.15368 30.9 9.55667C30.9 15.5448 26.685 20.9119 20.5513 23.5655L19.0187 21.2079C24.7423 18.1214 25.8613 14.1162 26.3092 11.5909C25.3876 12.0666 24.1811 12.2325 22.9969 12.123C19.9009 11.8373 17.4604 9.30345 17.4604 6.15368C17.4604 4.56552 18.0933 3.04241 19.2198 1.91942C20.3462 0.796421 21.8741 0.165527 23.4672 0.165527C25.3086 0.165527 27.0712 1.00387 28.1833 2.18268ZM11.0212 2.18268C12.7889 4.05441 13.738 6.15368 13.738 9.55667C13.738 15.5448 9.52295 20.9119 3.38922 23.5655L1.85665 21.2079C7.58021 18.1214 8.69917 14.1162 9.14539 11.5909C8.22379 12.0666 7.01729 12.2325 5.83482 12.123C2.73878 11.839 0.300049 9.30516 0.300049 6.15368C0.300049 4.56552 0.932899 3.04241 2.05938 1.91942C3.18586 0.796421 4.7137 0.165527 6.30678 0.165527C8.14827 0.165527 9.91082 1.00387 11.0229 2.18268" fill="#EEEEEE"/>
</svg>
