<?xml version="1.0" encoding="UTF-8"?>
<svg id="_レイヤー_1" data-name="レイヤー_1" xmlns="http://www.w3.org/2000/svg" version="1.1" viewBox="0 0 30 30">
  <!-- Generator: Adobe Illustrator 29.6.0, SVG Export Plug-In . SVG Version: 2.1.1 Build 207)  -->
  <defs>
    <style>
      .st0 {
        fill-rule: evenodd;
      }
    </style>
  </defs>
  <path class="st0" d="M2.1,3.8h25.8c.4,0,.7.2,1,.4.3.3.4.6.4,1v20.1c0,.4-.2.7-.4,1-.3.3-.6.4-1,.4H2.1c-.4,0-.7-.2-1-.4-.3-.3-.4-.6-.4-1V5.2c0-.4.2-.7.4-1,.3-.3.6-.4,1-.4ZM25.1,6.5l-9.9,7.9c0,0-.1,0-.2,0s-.2,0-.2,0L4.9,6.5l-1.3,1.7,9.9,7.9c.4.4,1,.6,1.6.6s1.1-.2,1.6-.6l9.9-7.9-1.3-1.7Z"/>
</svg>