<?xml version="1.0" encoding="UTF-8"?>
<svg id="_レイヤー_1" data-name="レイヤー_1" xmlns="http://www.w3.org/2000/svg" version="1.1" viewBox="0 0 30 30">
  <!-- Generator: Adobe Illustrator 29.6.0, SVG Export Plug-In . SVG Version: 2.1.1 Build 207)  -->
  <path d="M15.1,6.5c-2.2,0-4.3.9-5.9,2.4-1.6,1.6-2.4,3.7-2.4,5.9,0,1.6.4,3.1,1.3,4.4l.2.3-.8,3.1,3.1-.8.3.2c1.3.8,2.7,1.2,4.2,1.2h0c2.2,0,4.3-.9,5.9-2.4,1.6-1.6,2.4-3.7,2.4-5.9,0-1.1-.2-2.2-.6-3.2-.4-1-1-1.9-1.8-2.7-.8-.8-1.7-1.4-2.7-1.8-1-.4-2.1-.6-3.2-.6ZM20,18.4c-.2.6-1.2,1.1-1.7,1.2-.5,0-1.1,0-1.6,0-.5-.2-1-.3-1.4-.5-2.5-1.1-4.1-3.6-4.3-3.8-.1-.2-1-1.4-1-2.6s.6-1.8.9-2.1c0,0,.2-.2.3-.2.1,0,.2,0,.4,0,.2,0,.3,0,.5,0,.2,0,.4,0,.6.4.2.5.7,1.7.8,1.9,0,.1.1.3,0,.4,0,.2-.1.3-.2.4-.1.1-.3.3-.4.4-.1.1-.3.3-.1.5.1.2.6,1.1,1.4,1.7,1,.8,1.8,1.1,2,1.2.2.1.4.1.5,0,.1-.2.6-.7.8-1,.2-.2.3-.2.6-.1.2,0,1.5.7,1.7.8.2.1.4.2.5.3,0,.1,0,.6-.1,1.2Z"/>
  <path d="M28.3,0H1.7c-.4,0-.9.2-1.2.5-.3.3-.5.7-.5,1.2v26.7c0,.4.2.9.5,1.2.3.3.7.5,1.2.5h26.7c.4,0,.9-.2,1.2-.5s.5-.7.5-1.2V1.7c0-.4-.2-.9-.5-1.2-.3-.3-.7-.5-1.2-.5ZM15.1,24.8h0c-1.7,0-3.3-.4-4.8-1.2l-5.3,1.4,1.4-5.2c-.9-1.5-1.3-3.2-1.3-5,0-1.8.5-3.5,1.3-5,.9-1.5,2.1-2.8,3.7-3.7,1.5-.9,3.2-1.3,5-1.3,1.3,0,2.6.3,3.8.8,1.2.5,2.3,1.2,3.2,2.2.9.9,1.7,2,2.2,3.2s.8,2.5.8,3.8c0,2.6-1.1,5.2-2.9,7.1s-4.4,2.9-7.1,2.9Z"/>
</svg>